<svg width="186" height="69" viewBox="0 0 186 69" fill="none" xmlns="http://www.w3.org/2000/svg">
<g filter="url(#filter0_d_478_9623)">
<rect x="6" y="4.85547" width="174" height="56" rx="4" fill="black" fill-opacity="0.95"/>
</g>
<path d="M48.1549 32.5949C48.1201 28.7273 51.3217 26.8457 51.4681 26.7581C49.6549 24.1145 46.8445 23.7533 45.8569 23.7245C43.4965 23.4761 41.2069 25.1369 40.0045 25.1369C38.7781 25.1369 36.9265 23.7485 34.9309 23.7893C32.3629 23.8289 29.9605 25.3157 28.6429 27.6245C25.9237 32.3321 27.9517 39.2501 30.5569 43.0553C31.8601 44.9189 33.3829 46.9997 35.3761 46.9265C37.3261 46.8461 38.0545 45.6833 40.4077 45.6833C42.7393 45.6833 43.4233 46.9265 45.4561 46.8797C47.5489 46.8461 48.8665 45.0077 50.1241 43.1273C51.6301 40.9913 52.2349 38.8877 52.2589 38.7797C52.2097 38.7629 48.1945 37.2305 48.1549 32.5949Z" fill="white"/>
<path d="M44.3125 21.2232C45.3613 19.9116 46.0789 18.1272 45.8797 16.3164C44.3617 16.3836 42.4633 17.3664 41.3701 18.6492C40.4029 19.7796 39.5389 21.6324 39.7621 23.3748C41.4673 23.502 43.2181 22.5144 44.3125 21.2232Z" fill="white"/>
<path fill-rule="evenodd" clip-rule="evenodd" d="M73.6474 46.661H76.3726L71.2066 30.6914H68.0314L62.8906 46.661H65.5438L66.9658 41.9702H72.1546L73.6474 46.661ZM70.3547 35.8322L71.7047 40.0022H67.4171L68.7431 35.8322C69.0911 34.5062 69.3443 33.503 69.5015 32.8238H69.5495C69.9443 34.403 70.2119 35.4062 70.3547 35.8322Z" fill="white"/>
<path fill-rule="evenodd" clip-rule="evenodd" d="M88.0055 45.4054C89.0639 44.269 89.5931 42.721 89.5931 40.7626C89.5931 39.0094 89.1395 37.5958 88.2299 36.5206C87.3227 35.4466 86.1887 34.9102 84.8303 34.9102C83.0927 34.9102 81.7979 35.5966 80.9447 36.9718H80.8967L80.7539 35.1466H78.5039C78.5663 36.4426 78.5987 37.7062 78.5987 38.9374V51.3538H81.1571V45.2878H81.2051C81.8687 46.3774 82.9583 46.9222 84.4751 46.9222C85.8803 46.9222 87.0575 46.417 88.0055 45.4054ZM86.2283 38.0842C86.7347 38.8114 86.9867 39.7354 86.9867 40.8562C86.9867 42.073 86.7179 43.0522 86.1803 43.795C85.6439 44.5366 84.8939 44.9086 83.9303 44.9086C83.1095 44.9086 82.4423 44.6206 81.9287 44.0434C81.4151 43.4662 81.1583 42.7594 81.1583 41.9218V40.0018C81.1583 39.7978 81.1979 39.5386 81.2771 39.2218C81.4343 38.5426 81.7703 37.9942 82.2839 37.5742C82.7963 37.1578 83.3699 36.9466 84.0011 36.9466C84.9323 36.9466 85.6751 37.3258 86.2283 38.0842Z" fill="white"/>
<path fill-rule="evenodd" clip-rule="evenodd" d="M101.249 45.4054C102.309 44.269 102.838 42.721 102.838 40.7626C102.838 39.0094 102.383 37.5958 101.477 36.5206C100.568 35.4466 99.4336 34.9102 98.0764 34.9102C96.3376 34.9102 95.0428 35.5966 94.1908 36.9718H94.1428L94 35.1466H91.75C91.8124 36.4426 91.8448 37.7062 91.8448 38.9374V51.3538H94.4032V45.2878H94.4512C95.1136 46.3774 96.2032 46.9222 97.72 46.9222C99.1252 46.9222 100.302 46.417 101.249 45.4054ZM99.472 38.0842C99.9784 38.8114 100.232 39.7354 100.232 40.8562C100.232 42.073 99.9628 43.0522 99.4252 43.795C98.8888 44.5366 98.1388 44.9086 97.1752 44.9086C96.352 44.9086 95.6848 44.6194 95.1712 44.0434C94.66 43.4662 94.4032 42.7594 94.4032 41.9218V40.0018C94.4032 39.7978 94.444 39.5386 94.522 39.2218C94.6792 38.5426 95.014 37.9942 95.5276 37.5742C96.0412 37.1578 96.6136 36.9466 97.246 36.9466C98.1784 36.9466 98.9188 37.3258 99.472 38.0842Z" fill="white"/>
<path d="M117.645 42.1822C117.645 43.5406 117.174 44.6458 116.227 45.499C115.187 46.4314 113.738 46.897 111.877 46.897C110.159 46.897 108.781 46.5658 107.738 45.9022L108.331 43.7698C109.454 44.449 110.687 44.7898 112.029 44.7898C112.993 44.7898 113.743 44.5714 114.282 44.137C114.818 43.7026 115.086 43.1194 115.086 42.3922C115.086 41.7442 114.865 41.1982 114.422 40.7554C113.982 40.3126 113.246 39.901 112.219 39.5206C109.423 38.4778 108.026 36.9502 108.026 34.9414C108.026 33.6286 108.516 32.5522 109.496 31.7146C110.473 30.8758 111.776 30.457 113.406 30.457C114.859 30.457 116.066 30.7102 117.03 31.2154L116.39 33.301C115.49 32.8114 114.473 32.5666 113.334 32.5666C112.434 32.5666 111.731 32.7886 111.227 33.2302C110.801 33.625 110.587 34.1062 110.587 34.6762C110.587 35.3074 110.831 35.8294 111.32 36.2398C111.746 36.619 112.52 37.0294 113.643 37.4722C115.017 38.0254 116.027 38.6722 116.676 39.4138C117.323 40.153 117.645 41.0782 117.645 42.1822Z" fill="white"/>
<path d="M126.107 37.0665H123.287V42.6573C123.287 44.0793 123.783 44.7897 124.779 44.7897C125.237 44.7897 125.616 44.7501 125.916 44.6709L125.987 46.6137C125.483 46.8021 124.819 46.8969 123.997 46.8969C122.987 46.8969 122.197 46.5885 121.627 45.9729C121.059 45.3561 120.774 44.3217 120.774 42.8685V37.0641H119.094V35.1441H120.774V33.0357L123.287 32.2773V35.1441H126.107V37.0665Z" fill="white"/>
<path fill-rule="evenodd" clip-rule="evenodd" d="M137.313 45.1678C138.323 44.0314 138.83 42.5782 138.83 40.8082C138.83 39.0862 138.34 37.681 137.358 36.5926C136.332 35.4706 134.973 34.9102 133.283 34.9102C131.53 34.9102 130.136 35.479 129.102 36.6166C128.067 37.753 127.551 39.2146 127.551 40.999C127.551 42.7042 128.052 44.119 129.056 45.2398C130.059 46.3606 131.404 46.921 133.094 46.921C134.847 46.921 136.253 46.3378 137.313 45.1678ZM135.489 38.1585C135.948 38.9181 136.175 39.8289 136.175 40.8909C136.175 41.9517 135.938 42.8721 135.466 43.6461C134.913 44.5797 134.146 45.0477 133.169 45.0477C132.172 45.0477 131.399 44.5893 130.846 43.6701C130.386 42.9117 130.16 42.0009 130.16 40.9389C130.16 39.8445 130.386 38.9193 130.846 38.1585C131.382 37.2405 132.164 36.7809 133.192 36.7809C134.186 36.7809 134.952 37.2393 135.489 38.1585Z" fill="white"/>
<path d="M147.145 37.3966C146.892 37.3498 146.622 37.3258 146.339 37.3258C145.439 37.3258 144.743 37.6654 144.253 38.3458C143.827 38.9458 143.614 39.7042 143.614 40.6198V46.6618H141.056L141.08 38.773C141.08 37.4458 141.048 36.2374 140.984 35.1478H143.213L143.306 37.351H143.377C143.647 36.5938 144.073 35.9842 144.656 35.527C145.226 35.1154 145.842 34.9102 146.506 34.9102C146.742 34.9102 146.956 34.927 147.145 34.957V37.3966Z" fill="white"/>
<path fill-rule="evenodd" clip-rule="evenodd" d="M158.495 41.5179C158.559 41.2023 158.589 40.8159 158.589 40.3575C158.589 38.9211 158.249 37.7115 157.574 36.7335C156.721 35.5023 155.464 34.8867 153.805 34.8867C152.115 34.8867 150.772 35.5023 149.779 36.7335C148.829 37.8867 148.355 39.3327 148.355 41.0691C148.355 42.8379 148.865 44.2479 149.883 45.2979C150.903 46.3479 152.305 46.8735 154.09 46.8735C155.575 46.8735 156.861 46.6371 157.951 46.1619L157.55 44.3859C156.617 44.7495 155.581 44.9307 154.444 44.9307C153.417 44.9307 152.581 44.6619 151.934 44.1255C151.221 43.5255 150.85 42.6555 150.82 41.5179H158.495ZM155.653 37.7271C155.999 38.2803 156.166 38.9355 156.149 39.6939V39.6927H150.82C150.898 38.9199 151.151 38.2563 151.577 37.7031C152.097 37.0071 152.777 36.6603 153.614 36.6603C154.529 36.6603 155.21 37.0155 155.653 37.7271Z" fill="white"/>
<path fill-rule="evenodd" clip-rule="evenodd" d="M69.5894 24.0555C70.4354 23.3415 70.859 22.2783 70.859 20.8659C70.859 19.6083 70.4666 18.6423 69.6842 17.9667C68.9858 17.3691 67.9502 17.0703 66.5762 17.0703C65.7986 17.0703 65.0786 17.1255 64.4102 17.2335V24.9507C64.9226 25.0131 65.5346 25.0443 66.2498 25.0443C67.6922 25.0443 68.8058 24.7143 69.5894 24.0555ZM68.8058 18.7935C69.2906 19.2831 69.533 19.9851 69.533 20.9007C69.533 21.9255 69.269 22.7055 68.7458 23.2407C68.2226 23.7759 67.4798 24.0435 66.5174 24.0435C66.1058 24.0435 65.8226 24.0327 65.6678 24.0087V18.1419C65.9474 18.0867 66.2846 18.0603 66.6806 18.0603C67.613 18.0603 68.321 18.3051 68.8058 18.7935Z" fill="white"/>
<path fill-rule="evenodd" clip-rule="evenodd" d="M77.1468 24.2419C77.6436 23.6827 77.892 22.9699 77.892 22.0999C77.892 21.2551 77.6508 20.5639 77.1708 20.0287C76.6656 19.4779 75.9984 19.2031 75.168 19.2031C74.3064 19.2031 73.6224 19.4827 73.1136 20.0407C72.6048 20.5987 72.3516 21.3175 72.3516 22.1935C72.3516 23.0311 72.5976 23.7259 73.0896 24.2767C73.5828 24.8287 74.244 25.1035 75.0744 25.1035C75.936 25.1035 76.626 24.8167 77.1468 24.2419ZM76.2504 20.7979C76.4748 21.1711 76.5876 21.6187 76.5876 22.1407C76.5876 22.6627 76.4712 23.1139 76.2384 23.4943C75.9672 23.9539 75.5904 24.1831 75.1104 24.1831C74.6208 24.1831 74.2416 23.9575 73.9692 23.5063C73.7448 23.1331 73.632 22.6855 73.632 22.1635C73.632 21.6259 73.7436 21.1711 73.9692 20.7979C74.2332 20.3467 74.6172 20.1211 75.1224 20.1211C75.6108 20.1211 75.9864 20.3467 76.2504 20.7979Z" fill="white"/>
<path d="M87.3171 19.3164L85.5471 24.9732H84.3951L83.6619 22.5168C83.4759 21.9036 83.3247 21.294 83.2071 20.6892H83.1843C83.0751 21.3108 82.9239 21.9192 82.7295 22.5168L81.9507 24.9732H80.7855L79.1211 19.3164H80.4135L81.0531 22.0056C81.2079 22.6416 81.3351 23.2476 81.4371 23.8212H81.4599C81.5535 23.3484 81.7083 22.746 81.9267 22.0176L82.7295 19.3176H83.7543L84.5235 21.96C84.7095 22.6044 84.8607 23.2248 84.9771 23.8224H85.0119C85.0971 23.2404 85.2255 22.62 85.3959 21.96L86.0823 19.3176H87.3171V19.3164Z" fill="white"/>
<path d="M93.8373 24.9748H92.5797V21.7348C92.5797 20.7364 92.2005 20.2372 91.4397 20.2372C91.0665 20.2372 90.7653 20.374 90.5313 20.6488C90.2997 20.9236 90.1821 21.2476 90.1821 21.6184V24.9736H88.9245V20.9344C88.9245 20.4376 88.9089 19.8988 88.8789 19.3156H89.9841L90.0429 20.2H90.0777C90.2241 19.9252 90.4425 19.6984 90.7293 19.5172C91.0701 19.306 91.4517 19.1992 91.8693 19.1992C92.3973 19.1992 92.8365 19.3696 93.1857 19.7116C93.6201 20.1304 93.8373 20.7556 93.8373 21.586V24.9748Z" fill="white"/>
<path d="M97.3072 24.9751H96.0508V16.7227H97.3072V24.9751Z" fill="white"/>
<path fill-rule="evenodd" clip-rule="evenodd" d="M103.963 24.2419C104.46 23.6827 104.708 22.9699 104.708 22.0999C104.708 21.2551 104.467 20.5639 103.987 20.0287C103.481 19.4779 102.815 19.2031 101.983 19.2031C101.123 19.2031 100.439 19.4827 99.93 20.0407C99.4212 20.5987 99.168 21.3175 99.168 22.1935C99.168 23.0311 99.414 23.7259 99.906 24.2767C100.398 24.8287 101.059 25.1035 101.891 25.1035C102.751 25.1035 103.442 24.8167 103.963 24.2419ZM103.066 20.7979C103.29 21.1711 103.403 21.6187 103.403 22.1407C103.403 22.6627 103.288 23.1139 103.054 23.4943C102.782 23.9539 102.407 24.1831 101.927 24.1831C101.437 24.1831 101.058 23.9575 100.786 23.5063C100.561 23.1331 100.448 22.6855 100.448 22.1635C100.448 21.6259 100.56 21.1711 100.786 20.7979C101.048 20.3467 101.432 20.1211 101.939 20.1211C102.426 20.1211 102.803 20.3467 103.066 20.7979Z" fill="white"/>
<path fill-rule="evenodd" clip-rule="evenodd" d="M109.667 24.9751H110.796C110.742 24.6415 110.715 24.1915 110.715 23.6263V21.5431C110.715 19.9831 109.973 19.2031 108.495 19.2031C107.729 19.2031 107.08 19.3663 106.554 19.6915L106.81 20.5171C107.235 20.2387 107.727 20.0983 108.285 20.0983C109.068 20.0983 109.46 20.4703 109.46 21.2155V21.3211C108.412 21.3127 107.598 21.4915 107.02 21.8563C106.44 22.2211 106.152 22.7479 106.152 23.4391C106.152 23.8963 106.3 24.2815 106.595 24.5911C106.92 24.9319 107.352 25.1035 107.886 25.1035C108.602 25.1035 109.152 24.8431 109.539 24.3235H109.574L109.667 24.9751ZM109.491 22.1587V23.0311C109.491 23.1163 109.484 23.1907 109.47 23.2519C109.416 23.5243 109.271 23.7463 109.035 23.9215C108.8 24.0955 108.542 24.1831 108.266 24.1831C108.02 24.1831 107.813 24.1099 107.651 23.9623C107.489 23.8147 107.41 23.5939 107.41 23.2987C107.41 22.5151 108.104 22.1347 109.491 22.1587Z" fill="white"/>
<path fill-rule="evenodd" clip-rule="evenodd" d="M116.827 24.9751H117.943C117.913 24.5095 117.899 24.0019 117.899 23.4511V16.7227H116.64V19.9699H116.616C116.313 19.4575 115.782 19.2019 115.022 19.2019C114.331 19.2019 113.75 19.4659 113.276 19.9939C112.787 20.5603 112.543 21.3019 112.543 22.2175C112.543 23.0707 112.767 23.7655 113.217 24.3007C113.667 24.8359 114.235 25.1035 114.917 25.1035C115.77 25.1035 116.377 24.7579 116.733 24.0667H116.768L116.827 24.9751ZM116.64 21.6463V22.5895C116.64 22.9927 116.521 23.3383 116.279 23.6251C116.028 23.9359 115.698 24.0907 115.285 24.0907C114.825 24.0907 114.458 23.9047 114.186 23.5327C113.928 23.1835 113.799 22.7299 113.799 22.1707C113.799 21.5887 113.935 21.1123 114.203 20.7391C114.473 20.3659 114.84 20.1799 115.309 20.1799C115.634 20.1799 115.916 20.2831 116.15 20.4883C116.382 20.6935 116.534 20.9479 116.605 21.2503C116.628 21.3511 116.64 21.4831 116.64 21.6463Z" fill="white"/>
<path fill-rule="evenodd" clip-rule="evenodd" d="M127.951 24.2419C128.448 23.6827 128.697 22.9699 128.697 22.0999C128.697 21.2551 128.455 20.5639 127.975 20.0287C127.471 19.4779 126.803 19.2031 125.974 19.2031C125.111 19.2031 124.427 19.4827 123.918 20.0407C123.409 20.5987 123.156 21.3175 123.156 22.1935C123.156 23.0311 123.402 23.7259 123.894 24.2767C124.389 24.8287 125.05 25.1035 125.879 25.1035C126.742 25.1035 127.431 24.8167 127.951 24.2419ZM127.056 20.7979C127.281 21.1711 127.393 21.6187 127.393 22.1407C127.393 22.6627 127.276 23.1139 127.044 23.4943C126.773 23.9539 126.395 24.1831 125.915 24.1831C125.425 24.1831 125.046 23.9575 124.774 23.5063C124.549 23.1331 124.437 22.6855 124.437 22.1635C124.437 21.6259 124.548 21.1711 124.774 20.7979C125.039 20.3467 125.423 20.1211 125.927 20.1211C126.417 20.1211 126.791 20.3467 127.056 20.7979Z" fill="white"/>
<path d="M135.461 24.9748H134.205V21.7348C134.205 20.7364 133.826 20.2372 133.064 20.2372C132.69 20.2372 132.389 20.374 132.156 20.6488C131.924 20.9236 131.807 21.2476 131.807 21.6184V24.9736H130.548V20.9344C130.548 20.4376 130.534 19.8988 130.504 19.3156H131.608L131.667 20.2H131.702C131.849 19.9252 132.068 19.6984 132.353 19.5172C132.695 19.306 133.076 19.1992 133.494 19.1992C134.021 19.1992 134.46 19.3696 134.81 19.7116C135.245 20.1304 135.461 20.7556 135.461 21.586V24.9748Z" fill="white"/>
<path d="M143.922 20.261H142.537V23.009C142.537 23.7074 142.783 24.0566 143.27 24.0566C143.496 24.0566 143.683 24.0374 143.831 23.9978L143.863 24.9518C143.615 25.0454 143.288 25.0922 142.886 25.0922C142.389 25.0922 142.003 24.941 141.723 24.6386C141.443 24.3362 141.303 23.8274 141.303 23.1134V20.261H140.477V19.319H141.303V18.2822L142.536 17.9102V19.3178H143.921V20.261H143.922Z" fill="white"/>
<path d="M150.581 24.9751H149.322V21.7591C149.322 20.7451 148.943 20.2375 148.183 20.2375C147.6 20.2375 147.202 20.5315 146.983 21.1195C146.946 21.2431 146.924 21.3943 146.924 21.5719V24.9739H145.668V16.7227H146.924V20.1319H146.948C147.344 19.5115 147.912 19.2019 148.648 19.2019C149.168 19.2019 149.599 19.3723 149.941 19.7143C150.367 20.1403 150.581 20.7739 150.581 21.6115V24.9751Z" fill="white"/>
<path fill-rule="evenodd" clip-rule="evenodd" d="M157.4 22.4482C157.43 22.2934 157.447 22.1038 157.447 21.8782C157.447 21.1726 157.28 20.5786 156.943 20.0986C156.526 19.4938 155.908 19.1914 155.094 19.1914C154.262 19.1914 153.604 19.4938 153.116 20.0986C152.65 20.665 152.418 21.3754 152.418 22.2286C152.418 23.0974 152.666 23.7898 153.168 24.3058C153.667 24.8218 154.357 25.0798 155.233 25.0798C155.964 25.0798 156.595 24.9634 157.132 24.7306L156.935 23.857C156.476 24.0358 155.968 24.1246 155.41 24.1246C154.906 24.1246 154.494 23.9926 154.175 23.7286C153.826 23.4334 153.646 23.0074 153.629 22.4482H157.4ZM156.004 20.587C156.174 20.8582 156.257 21.1798 156.247 21.553H153.629C153.67 21.1726 153.793 20.8474 154.002 20.575C154.258 20.233 154.592 20.0626 155.003 20.0626C155.453 20.0626 155.785 20.2378 156.004 20.587Z" fill="white"/>
<defs>
<filter id="filter0_d_478_9623" x="0" y="0.855469" width="186" height="68" filterUnits="userSpaceOnUse" color-interpolation-filters="sRGB">
<feFlood flood-opacity="0" result="BackgroundImageFix"/>
<feColorMatrix in="SourceAlpha" type="matrix" values="0 0 0 0 0 0 0 0 0 0 0 0 0 0 0 0 0 0 127 0" result="hardAlpha"/>
<feOffset dy="2"/>
<feGaussianBlur stdDeviation="3"/>
<feColorMatrix type="matrix" values="0 0 0 0 0 0 0 0 0 0 0 0 0 0 0 0 0 0 0.2 0"/>
<feBlend mode="normal" in2="BackgroundImageFix" result="effect1_dropShadow_478_9623"/>
<feBlend mode="normal" in="SourceGraphic" in2="effect1_dropShadow_478_9623" result="shape"/>
</filter>
</defs>
</svg>
