<svg width="186" height="69" viewBox="0 0 186 69" fill="none" xmlns="http://www.w3.org/2000/svg">
<g filter="url(#filter0_d_478_9585)">
<rect x="6" y="4.85547" width="174" height="56" rx="4" fill="black" fill-opacity="0.95"/>
</g>
<path d="M68.9986 20.4973H65.2786V21.5773H67.9186C67.7986 22.0573 67.6786 22.5373 67.3186 22.7773C66.8386 23.2573 66.1186 23.4973 65.3986 23.4973C64.6786 23.4973 64.0786 23.2573 63.4786 22.7773C62.9986 22.2973 62.6386 21.5773 62.6386 20.7373C62.6386 19.8973 62.8786 19.2973 63.4786 18.6973C63.9586 18.2173 64.6786 17.9773 65.3986 17.9773C66.2386 17.9773 66.8386 18.2173 67.3186 18.8173L67.4386 18.9373L68.2786 18.0973L68.1586 17.9773C67.9186 17.6173 67.4386 17.3773 66.9586 17.1373C66.4786 16.8973 65.9986 16.7773 65.3986 16.7773C64.3186 16.7773 63.3586 17.1373 62.6386 17.8573C61.9186 18.5773 61.5586 19.5373 61.5586 20.6173C61.5586 21.6973 61.9186 22.6573 62.6386 23.3773C63.3586 24.0973 64.3186 24.4573 65.3986 24.4573C66.4786 24.4573 67.4386 24.0973 68.1586 23.3773C68.7586 22.7773 69.1186 21.9373 69.1186 20.8573C68.9986 20.9773 68.9986 20.7373 68.9986 20.4973Z" fill="white"/>
<path d="M70.0781 24.5767H74.5181V23.4967H71.2781V21.4567H74.2781V20.2567H71.2781V18.2167H74.5181V17.1367H70.0781V24.5767Z" fill="white"/>
<path d="M75.2383 18.2167H77.2783V24.5767H78.4783V18.2167H80.5183V17.1367H75.2383V18.2167Z" fill="white"/>
<rect x="83.7617" y="17.1367" width="1.2" height="7.44" fill="white"/>
<path d="M85.9219 18.2167H87.9619V24.5767H89.0419V18.2167H91.0819V17.1367H85.9219V18.2167Z" fill="white"/>
<path fill-rule="evenodd" clip-rule="evenodd" d="M94.9198 18.0956C95.6398 17.3756 96.5998 17.0156 97.6798 17.0156C98.7598 17.0156 99.7198 17.3756 100.44 18.0956C101.16 18.8156 101.52 19.7756 101.52 20.8556C101.52 21.9356 101.16 22.8956 100.44 23.6156C99.7198 24.3356 98.7598 24.6956 97.6798 24.6956C96.5998 24.6956 95.6398 24.3356 94.9198 23.6156C94.1998 22.8956 93.8398 21.9356 93.8398 20.8556C93.8398 19.7756 94.1998 18.8156 94.9198 18.0956ZM95.7599 22.8956C96.3599 23.3756 96.9599 23.6156 97.6799 23.6156C98.3999 23.6156 98.9999 23.3756 99.5999 22.8956C100.08 22.2956 100.32 21.6956 100.32 20.8556C100.32 20.0156 100.08 19.2956 99.5999 18.8156C98.9999 18.3356 98.3999 18.0956 97.6799 18.0956C96.8399 18.0956 96.2399 18.3356 95.7599 18.8156C95.2799 19.4156 95.0399 20.0156 95.0399 20.8556C95.0399 21.6956 95.2799 22.4156 95.7599 22.8956Z" fill="white"/>
<path d="M107.162 17.1367V21.4567L107.282 22.5367L103.922 17.1367H102.602V24.5767H103.682V20.0167V18.9367L107.162 24.5767H108.362V17.1367H107.162Z" fill="white"/>
<path fill-rule="evenodd" clip-rule="evenodd" d="M88.5586 40.1756C88.5586 37.1756 90.8386 35.0156 93.7186 35.0156C96.5986 35.0156 98.8786 37.0556 98.8786 40.1756C98.8786 43.1756 96.5986 45.3356 93.7186 45.3356C90.8386 45.3356 88.5586 43.0556 88.5586 40.1756ZM90.8385 40.0556C90.8385 41.8556 92.1585 43.1756 93.7185 43.1756C95.2785 43.1756 96.5985 41.8556 96.5985 40.0556C96.5985 38.1356 95.2785 36.9356 93.7185 36.9356C92.1585 36.9356 90.8385 38.2556 90.8385 40.0556Z" fill="white"/>
<path fill-rule="evenodd" clip-rule="evenodd" d="M77.3984 40.1756C77.3984 37.1756 79.6784 35.0156 82.5584 35.0156C85.4384 35.0156 87.7184 37.0556 87.7184 40.1756C87.7184 43.1756 85.4384 45.3356 82.5584 45.3356C79.6784 45.3356 77.3984 43.0556 77.3984 40.1756ZM79.6785 40.0556C79.6785 41.8556 80.9985 43.1756 82.5585 43.1756C84.1185 43.1756 85.4385 41.8556 85.4385 40.0556C85.4385 38.1356 84.1185 36.9356 82.5585 36.9356C80.9985 36.9356 79.6785 38.2556 79.6785 40.0556Z" fill="white"/>
<path d="M69.2403 36.575V38.735H74.4003C74.2803 39.935 73.8003 40.895 73.2003 41.495C72.4803 42.215 71.2803 43.055 69.2403 43.055C66.0003 43.055 63.6003 40.535 63.6003 37.295C63.6003 34.055 66.1203 31.535 69.2403 31.535C70.9203 31.535 72.2403 32.255 73.2003 33.095L74.7603 31.535C73.4403 30.335 71.7603 29.375 69.3603 29.375C65.0403 29.375 61.3203 32.975 61.3203 37.295C61.3203 41.615 65.0403 45.215 69.3603 45.215C71.7603 45.215 73.4403 44.495 74.8803 42.935C76.3203 41.495 76.8003 39.455 76.8003 37.895C76.8003 37.415 76.8003 36.935 76.6803 36.575H69.2403Z" fill="white"/>
<path fill-rule="evenodd" clip-rule="evenodd" d="M117 41.6145C117.6 42.6945 118.32 43.1745 119.52 43.1745C120.72 43.1745 121.44 42.5745 122.04 41.7345L123.72 42.9345C123.24 43.7745 121.8 45.2145 119.52 45.2145C116.64 45.2145 114.48 42.9345 114.48 40.0545C114.48 36.9345 116.64 34.8945 119.28 34.8945C121.92 34.8945 123.12 36.9345 123.6 38.1345L123.84 38.7345L117 41.6145ZM121.32 38.0145C121.08 37.4145 120.24 36.9345 119.4 36.9345C118.2 36.9345 116.64 37.8945 116.76 39.9345L121.32 38.0145Z" fill="white"/>
<rect x="111.121" y="29.8555" width="2.28" height="15" fill="white"/>
<path fill-rule="evenodd" clip-rule="evenodd" d="M107.52 36.0945V35.2545H109.68V44.3745C109.68 48.0945 107.52 49.6545 104.88 49.6545C102.36 49.6545 100.92 47.9745 100.32 46.6545L102.24 45.8145C102.48 46.6545 103.44 47.6145 104.76 47.6145C106.44 47.6145 107.52 46.5345 107.52 44.6145V43.8945H107.4C106.92 44.4945 105.96 45.0945 104.76 45.0945C102.12 45.0945 99.8398 42.9345 99.8398 40.0545C99.8398 37.1745 102.24 34.8945 104.76 34.8945C105.96 34.8945 106.92 35.4945 107.4 36.0945H107.52ZM102 40.0545C102 41.8545 103.32 43.1745 104.88 43.1745C106.44 43.1745 107.64 41.8545 107.64 40.0545C107.64 38.2545 106.44 36.9345 104.88 36.9345C103.32 36.9345 102 38.2545 102 40.0545Z" fill="white"/>
<path fill-rule="evenodd" clip-rule="evenodd" d="M128.762 29.8555H134.162C136.682 29.8555 139.082 31.6555 139.082 34.5355C139.082 37.4155 136.682 39.2155 134.162 39.2155H131.042V44.8555H128.762V29.8555ZM131.042 37.0554H134.282C135.842 37.0554 136.802 35.7354 136.922 34.4154C136.922 33.3354 135.962 31.8954 134.282 31.8954H131.042V37.0554Z" fill="white"/>
<path fill-rule="evenodd" clip-rule="evenodd" d="M144.12 37.1745C144.72 35.6145 146.4 34.8945 148.08 34.8945C150.6 34.8945 152.64 36.4545 152.88 39.0945V44.8545H150.72V43.6545H150.6C150 44.3745 149.28 45.0945 147.72 45.0945C145.8 45.0945 144 43.7745 144 41.7345C144 39.5745 146.16 38.3745 148.32 38.3745C149.28 38.3745 150.24 38.7345 150.6 38.9745V38.8545C150.48 37.6545 149.4 36.9345 148.2 36.9345C147.36 36.9345 146.64 37.1745 146.16 38.0145L144.12 37.1745ZM146.04 41.8546C146.04 42.8146 147.12 43.1746 147.84 43.1746C149.04 43.1746 150.24 42.2146 150.48 40.7746C150.419 40.7503 150.36 40.7261 150.301 40.7021C149.778 40.4885 149.303 40.2946 148.44 40.2946C147.36 40.2946 146.04 40.6546 146.04 41.8546Z" fill="white"/>
<path d="M160.442 35.2539L157.922 41.7339H157.802L155.162 35.2539H152.762L156.722 44.3739L154.442 49.4139H156.842L162.962 35.2539H160.442Z" fill="white"/>
<rect x="140.281" y="29.8555" width="2.28" height="15" fill="white"/>
<path d="M24.4789 17.8555C24.1189 18.2155 23.8789 18.8155 23.8789 19.5355V46.0555C23.8789 46.7755 24.1189 47.3755 24.4789 47.7355L24.5989 47.8555L39.4789 32.9755V32.8555V32.7355L24.4789 17.8555Z" fill="url(#paint0_linear_478_9585)"/>
<path d="M44.4005 38.0164L39.4805 33.0964V32.8564V32.7364L44.4005 27.8164L44.5205 27.9364L50.4005 31.2964C52.0805 32.2564 52.0805 33.8164 50.4005 34.7764L44.4005 38.0164Z" fill="url(#paint1_linear_478_9585)"/>
<path d="M44.5205 37.8955L39.4805 32.8555L24.4805 47.8555C25.0805 48.4555 25.9205 48.4555 27.0005 47.9755L44.5205 37.8955Z" fill="url(#paint2_linear_478_9585)"/>
<path d="M44.5205 27.8154L27.0005 17.8554C25.9205 17.2554 25.0805 17.3754 24.4805 17.9754L39.4805 32.8554L44.5205 27.8154Z" fill="url(#paint3_linear_478_9585)"/>
<defs>
<filter id="filter0_d_478_9585" x="0" y="0.855469" width="186" height="68" filterUnits="userSpaceOnUse" color-interpolation-filters="sRGB">
<feFlood flood-opacity="0" result="BackgroundImageFix"/>
<feColorMatrix in="SourceAlpha" type="matrix" values="0 0 0 0 0 0 0 0 0 0 0 0 0 0 0 0 0 0 127 0" result="hardAlpha"/>
<feOffset dy="2"/>
<feGaussianBlur stdDeviation="3"/>
<feColorMatrix type="matrix" values="0 0 0 0 0 0 0 0 0 0 0 0 0 0 0 0 0 0 0.2 0"/>
<feBlend mode="normal" in2="BackgroundImageFix" result="effect1_dropShadow_478_9585"/>
<feBlend mode="normal" in="SourceGraphic" in2="effect1_dropShadow_478_9585" result="shape"/>
</filter>
<linearGradient id="paint0_linear_478_9585" x1="32.9224" y1="-0.0571972" x2="9.08119" y2="6.38948" gradientUnits="userSpaceOnUse">
<stop stop-color="#00A0FF"/>
<stop offset="0.00657445" stop-color="#00A1FF"/>
<stop offset="0.2601" stop-color="#00BEFF"/>
<stop offset="0.5122" stop-color="#00D2FF"/>
<stop offset="0.7604" stop-color="#00DFFF"/>
<stop offset="1" stop-color="#00E3FF"/>
</linearGradient>
<linearGradient id="paint1_linear_478_9585" x1="52.6017" y1="20.7" x2="23.5655" y2="20.7" gradientUnits="userSpaceOnUse">
<stop stop-color="#FFE000"/>
<stop offset="0.4087" stop-color="#FFBD00"/>
<stop offset="0.7754" stop-color="#FFA500"/>
<stop offset="1" stop-color="#FF9C00"/>
</linearGradient>
<linearGradient id="paint2_linear_478_9585" x1="24.0998" y1="25.0723" x2="4.9413" y2="57.2375" gradientUnits="userSpaceOnUse">
<stop stop-color="#FF3A44"/>
<stop offset="1" stop-color="#C31162"/>
</linearGradient>
<linearGradient id="paint3_linear_478_9585" x1="12.8197" y1="13.7509" x2="21.3073" y2="28.1338" gradientUnits="userSpaceOnUse">
<stop stop-color="#32A071"/>
<stop offset="0.0685" stop-color="#2DA771"/>
<stop offset="0.4762" stop-color="#15CF74"/>
<stop offset="0.8009" stop-color="#06E775"/>
<stop offset="1" stop-color="#00F076"/>
</linearGradient>
</defs>
</svg>
