<svg width="512" height="512" viewBox="0 0 512 512" fill="none" xmlns="http://www.w3.org/2000/svg">
<mask id="mask0_1_124" style="mask-type:alpha" maskUnits="userSpaceOnUse" x="0" y="0" width="512" height="512">
<rect width="512" height="512" rx="32" fill="white"/>
</mask>
<g mask="url(#mask0_1_124)">
<rect width="768" height="768" transform="translate(-128 -128)" fill="#164A7F"/>
<path fill-rule="evenodd" clip-rule="evenodd" d="M-128 640V-128H640L640 640L-128 640Z" fill="url(#paint0_linear_1_124)"/>
<path fill-rule="evenodd" clip-rule="evenodd" d="M315.921 74.562C282.596 41.2372 201.551 68.2523 134.902 134.902C68.2523 201.551 41.2372 282.596 74.562 315.921C107.88 349.239 188.897 322.242 255.538 255.624C188.964 322.309 264.383 505.742 424.03 665.389C583.711 825.07 767.188 900.487 833.838 833.837C900.487 767.188 825.07 583.711 665.389 424.03C505.742 264.383 322.309 188.964 255.624 255.538C322.242 188.897 349.239 107.88 315.921 74.562Z" fill="#401360" fill-opacity="0.4283"/>
<circle cx="256" cy="256" r="170.667" fill="url(#paint1_linear_1_124)"/>
<path d="M260.274 398.837C260.107 400.164 258.979 401.16 257.642 401.16C256.311 401.16 255.186 400.173 255.013 398.853L236.738 259.512C236.609 258.528 236.609 257.531 236.737 256.547L255.015 116.341C255.187 115.022 256.311 114.034 257.642 114.034C258.979 114.034 260.106 115.03 260.272 116.356L277.736 256.613C277.853 257.554 277.853 258.506 277.735 259.447L260.274 398.837Z" fill="#2A85FF" stroke="white"/>
<path d="M249.498 257.53C242.596 257.53 237.267 251.461 238.16 244.617L254.882 116.341C255.054 115.022 256.179 114.034 257.51 114.034C258.846 114.034 259.974 115.03 260.139 116.356L276.118 244.683C276.967 251.505 271.646 257.53 264.771 257.53H249.498Z" fill="#FF0000" stroke="white"/>
<path fill-rule="evenodd" clip-rule="evenodd" d="M398.903 253.683C400.48 253.881 401.663 255.221 401.663 256.811C401.663 258.393 400.49 259.73 398.921 259.936L259.58 278.21C258.553 278.345 257.513 278.346 256.485 278.212L116.28 259.934C114.711 259.729 113.537 258.393 113.537 256.811C113.537 255.222 114.721 253.882 116.298 253.685L256.554 236.221C257.536 236.098 258.53 236.099 259.512 236.222L398.903 253.683Z" fill="white"/>
<path fill-rule="evenodd" clip-rule="evenodd" d="M327.53 183.917C328.076 183.452 328.888 183.485 329.395 183.992C329.901 184.498 329.935 185.307 329.473 185.854L264.044 263.31L186.152 329.174C185.605 329.636 184.796 329.602 184.29 329.097C183.783 328.589 183.751 327.778 184.216 327.232L250.347 249.612L327.53 183.917Z" fill="white"/>
<path fill-rule="evenodd" clip-rule="evenodd" d="M181.929 185.474C181.464 184.929 181.496 184.117 182.003 183.61C182.509 183.104 183.318 183.07 183.864 183.532L262.154 249.793L328.854 328.524C329.317 329.069 329.283 329.878 328.778 330.384C328.271 330.891 327.459 330.923 326.913 330.458L248.456 263.49L181.929 185.474Z" fill="#E4E4E4"/>
<ellipse cx="256.865" cy="256.862" rx="25.7255" ry="25.7255" fill="white"/>
<circle cx="256.865" cy="256.862" r="11.0252" fill="#491A6D"/>
</g>
<defs>
<linearGradient id="paint0_linear_1_124" x1="1027.84" y1="248.32" x2="244.48" y2="-527.36" gradientUnits="userSpaceOnUse">
<stop stop-color="#171150"/>
<stop offset="1" stop-color="#1F0B2A"/>
</linearGradient>
<linearGradient id="paint1_linear_1_124" x1="95.2442" y1="265.008" x2="95.2442" y2="586.519" gradientUnits="userSpaceOnUse">
<stop stop-color="#4A1668"/>
<stop offset="1" stop-color="#1D0944"/>
</linearGradient>
</defs>
</svg>
